<svg xmlns="http://www.w3.org/2000/svg" viewBox="0 0 24 24">
  <path d="M24 5.457v13.909c0 .904-.732 1.636-1.636 1.636h-3.818V11.73L12 16.64l-6.545-4.91v9.273H1.636A1.636 1.636 0 0 1 0 19.366V5.457c0-2.023 2.309-3.178 3.927-1.964L5.455 4.64 12 9.548l6.545-4.91 1.528-1.145C21.69 2.28 24 3.434 24 5.457z" fill="#ea4335"/>
  <path d="M12 16.64L24 7.636v11.73c0 .904-.732 1.636-1.636 1.636h-3.818V11.73L12 16.64z" fill="#34a853"/>
  <path d="M0 7.636l12 9.004v4.364H1.636A1.636 1.636 0 0 1 0 19.366V7.636z" fill="#4285f4"/>
  <path d="M16.364 3.18l-4.364 3.273-4.364-3.273C6.018 1.966 3.71 3.12 3.71 5.143v6.587l8.29 6.218 8.29-6.218V5.143c0-2.023-2.309-3.178-3.927-1.964z" fill="#fbbc04"/>
</svg>
